<?xml version="1.0" encoding="UTF-8"?>
<svg width="1437px" height="454px" viewBox="0 0 1437 454" version="1.1" xmlns="http://www.w3.org/2000/svg" xmlns:xlink="http://www.w3.org/1999/xlink">
    <!-- Generator: Sketch 51.1 (57501) - http://www.bohemiancoding.com/sketch -->
    <title>tk-c-major</title>
    <desc>Created with Sketch.</desc>
    <defs></defs>
    <g id="Page-1" stroke="none" stroke-width="1" fill="none" fill-rule="evenodd">
        <g id="tk-c-major">
            <g id="TK-Octave" stroke="#979797">
                <g id="TK-Octave-Copy-6">
                    <path d="M56.5,0.5 L0.5,0.5 L0.5,453.5 L96.5,453.5 L96.5,278.5 L56.5,278.5 L56.5,0.5 Z" id="Combined-Shape" fill="#FFFFFF"></path>
                    <path d="M100.5,278.5 L100.5,453.5 L196.5,453.5 L196.5,278.5 L176.5,278.5 L176.5,0.5 L120.5,0.5 L120.5,278.5 L100.5,278.5 Z" id="Combined-Shape" fill="#FFFFFF"></path>
                    <path d="M200.5,278.5 L200.5,453.5 L296.5,453.5 L296.5,0.5 L240.5,0.5 L240.5,278.5 L200.5,278.5 Z" id="Combined-Shape" fill="#FFFFFF"></path>
                    <rect id="Rectangle-Copy" fill="#242424" x="60.5" y="0.5" width="56" height="274"></rect>
                    <rect id="Rectangle-Copy-3" fill="#242424" x="180.5" y="0.5" width="56" height="274"></rect>
                    <path d="M356.5,0.5 L300.5,0.5 L300.5,453.5 L401.5,453.5 L401.5,278.5 L356.5,278.5 L356.5,0.5 Z" id="Combined-Shape" fill="#FFFFFF"></path>
                    <path d="M405.5,278.5 L405.5,453.5 L506.5,453.5 L506.5,278.5 L476.5,278.5 L476.5,0.5 L420.5,0.5 L420.5,278.5 L405.5,278.5 Z" id="Combined-Shape" fill="#FFFFFF"></path>
                    <path d="M510.5,278.5 L510.5,453.5 L611.5,453.5 L611.5,278.5 L596.5,278.5 L596.5,0.5 L540.5,0.5 L540.5,278.5 L510.5,278.5 Z" id="Combined-Shape" fill="#FFFFFF"></path>
                    <path d="M615.5,278.5 L615.5,453.5 L716.5,453.5 L716.5,0.5 L660.5,0.5 L660.5,278.5 L615.5,278.5 Z" id="Combined-Shape" fill="#FFFFFF"></path>
                    <rect id="Rectangle-Copy-6" fill="#242424" x="360.5" y="0.5" width="56" height="274"></rect>
                    <rect id="Rectangle-Copy-8" fill="#242424" x="480.5" y="0.5" width="56" height="274"></rect>
                    <rect id="Rectangle-Copy-10" fill="#242424" x="600.5" y="0.5" width="56" height="274"></rect>
                </g>
            </g>
            <g id="TK-Octave" transform="translate(720.000000, 0.000000)" stroke="#979797">
                <g id="TK-Octave-Copy-6">
                    <path d="M56.5,0.5 L0.5,0.5 L0.5,453.5 L96.5,453.5 L96.5,278.5 L56.5,278.5 L56.5,0.5 Z" id="Combined-Shape" fill="#FFFFFF"></path>
                    <path d="M100.5,278.5 L100.5,453.5 L196.5,453.5 L196.5,278.5 L176.5,278.5 L176.5,0.5 L120.5,0.5 L120.5,278.5 L100.5,278.5 Z" id="Combined-Shape" fill="#FFFFFF"></path>
                    <path d="M200.5,278.5 L200.5,453.5 L296.5,453.5 L296.5,0.5 L240.5,0.5 L240.5,278.5 L200.5,278.5 Z" id="Combined-Shape" fill="#FFFFFF"></path>
                    <rect id="Rectangle-Copy" fill="#242424" x="60.5" y="0.5" width="56" height="274"></rect>
                    <rect id="Rectangle-Copy-3" fill="#242424" x="180.5" y="0.5" width="56" height="274"></rect>
                    <path d="M356.5,0.5 L300.5,0.5 L300.5,453.5 L401.5,453.5 L401.5,278.5 L356.5,278.5 L356.5,0.5 Z" id="Combined-Shape" fill="#FFFFFF"></path>
                    <path d="M405.5,278.5 L405.5,453.5 L506.5,453.5 L506.5,278.5 L476.5,278.5 L476.5,0.5 L420.5,0.5 L420.5,278.5 L405.5,278.5 Z" id="Combined-Shape" fill="#FFFFFF"></path>
                    <path d="M510.5,278.5 L510.5,453.5 L611.5,453.5 L611.5,278.5 L596.5,278.5 L596.5,0.5 L540.5,0.5 L540.5,278.5 L510.5,278.5 Z" id="Combined-Shape" fill="#FFFFFF"></path>
                    <path d="M615.5,278.5 L615.5,453.5 L716.5,453.5 L716.5,0.5 L660.5,0.5 L660.5,278.5 L615.5,278.5 Z" id="Combined-Shape" fill="#FFFFFF"></path>
                    <rect id="Rectangle-Copy-6" fill="#242424" x="360.5" y="0.5" width="56" height="274"></rect>
                    <rect id="Rectangle-Copy-8" fill="#242424" x="480.5" y="0.5" width="56" height="274"></rect>
                    <rect id="Rectangle-Copy-10" fill="#242424" x="600.5" y="0.5" width="56" height="274"></rect>
                </g>
            </g>
            <g id="Group-2-Copy-12" opacity="0.899999976" transform="translate(5.000000, 336.000000)">
                <circle id="Oval" stroke="#979797" stroke-width="1.76000006" fill="#A4F493" opacity="0.796641791" cx="44" cy="44" r="44"></circle>
                <text id="1" font-family="Helvetica" font-size="49.2800018" font-weight="normal" fill="#000000">
                    <tspan x="30" y="62">1</tspan>
                </text>
            </g>
            <g id="Group-2-Copy-13" opacity="0.899999976" transform="translate(307.000000, 336.000000)">
                <circle id="Oval" stroke="#979797" stroke-width="1.76000006" fill="#A4F493" opacity="0.796641791" cx="44" cy="44" r="44"></circle>
                <text id="1" font-family="Helvetica" font-size="49.2800018" font-weight="normal" fill="#000000">
                    <tspan x="30" y="62">1</tspan>
                </text>
            </g>
            <g id="Group-3-Copy-13" opacity="0.899999976" transform="translate(105.000000, 336.000000)">
                <circle id="Oval-Copy-5" stroke="#979797" stroke-width="1.76000006" fill="#A4F493" cx="44" cy="44" r="44"></circle>
                <text id="2" font-family="Helvetica" font-size="49.2800018" font-weight="normal" fill="#000000">
                    <tspan x="30" y="62">2</tspan>
                </text>
            </g>
            <g id="Group-3-Copy-14" opacity="0.899999976" transform="translate(412.000000, 336.000000)">
                <circle id="Oval-Copy-5" stroke="#979797" stroke-width="1.76000006" fill="#A4F493" cx="44" cy="44" r="44"></circle>
                <text id="2" font-family="Helvetica" font-size="49.2800018" font-weight="normal" fill="#000000">
                    <tspan x="30" y="62">2</tspan>
                </text>
            </g>
            <g id="Group-4-Copy-13" opacity="0.899999976" transform="translate(205.000000, 336.000000)">
                <circle id="Oval-Copy-6" stroke="#979797" stroke-width="1.76000006" fill="#A4F493" cx="44" cy="44" r="44"></circle>
                <text id="3" font-family="Helvetica" font-size="49.2800018" font-weight="normal" fill="#000000">
                    <tspan x="30" y="62">3</tspan>
                </text>
            </g>
            <circle id="Oval-Copy-6" stroke="#979797" stroke-width="1.76000006" fill="#A4F493" cx="561" cy="383" r="44"></circle>
            <text id="3" font-family="Helvetica" font-size="49.2800018" font-weight="normal" fill="#000000">
                <tspan x="547" y="401">3</tspan>
            </text>
            <circle id="Oval-Copy-7" stroke="#979797" stroke-width="1.76000006" fill="#A4F493" cx="663" cy="383" r="44"></circle>
            <text id="4" font-family="Helvetica" font-size="49.2800018" font-weight="normal" fill="#000000">
                <tspan x="649" y="401">4</tspan>
            </text>
            <circle id="Oval-Copy-8" stroke="#979797" stroke-width="1.76000006" fill="#A4F493" cx="766" cy="383" r="44"></circle>
            <text id="5" font-family="Helvetica" font-size="49.2800018" font-weight="normal" fill="#000000">
                <tspan x="752" y="401">5</tspan>
            </text>
        </g>
    </g>
</svg>