<svg width="2346" height="559" xmlns="http://www.w3.org/2000/svg">
  <g fill="none" fill-rule="evenodd">
    <rect stroke="#969696" fill="#343434" fill-rule="nonzero" x=".5" y=".5" width="2345" height="546" rx="20"/>
    <g stroke="#979797">
      <path fill="#979797" d="M95.5 105.5h56v453h-56z"/>
      <path fill="#242424" d="M155.5 105.5h56v453h-56z"/>
      <path fill="#979797" d="M215.5 105.5h56v453h-56z"/>
      <path fill="#242424" d="M275.5 105.5h56v453h-56z"/>
      <path fill="#979797" d="M335.5 105.5h56v453h-56zM395.5 105.5h56v453h-56z"/>
      <path fill="#242424" d="M455.5 105.5h56v453h-56z"/>
      <path fill="#979797" d="M515.5 105.5h56v453h-56z"/>
      <path fill="#242424" d="M575.5 105.5h56v453h-56z"/>
      <path fill="#979797" d="M635.5 105.5h56v453h-56z"/>
      <path fill="#242424" d="M695.5 105.5h56v453h-56z"/>
      <path fill="#979797" d="M755.5 105.5h56v453h-56z"/>
    </g>
    <g stroke="#979797">
      <path fill="#979797" d="M815.5 105.5h56v453h-56z"/>
      <path fill="#242424" d="M875.5 105.5h56v453h-56z"/>
      <path fill="#979797" d="M935.5 105.5h56v453h-56z"/>
      <path fill="#242424" d="M995.5 105.5h56v453h-56z"/>
      <path fill="#979797" d="M1055.5 105.5h56v453h-56zM1115.5 105.5h56v453h-56z"/>
      <path fill="#242424" d="M1175.5 105.5h56v453h-56z"/>
      <path fill="#979797" d="M1235.5 105.5h56v453h-56z"/>
      <path fill="#242424" d="M1295.5 105.5h56v453h-56z"/>
      <path fill="#979797" d="M1355.5 105.5h56v453h-56z"/>
      <path fill="#242424" d="M1415.5 105.5h56v453h-56z"/>
      <path fill="#979797" d="M1475.5 105.5h56v453h-56z"/>
    </g>
    <g stroke="#979797">
      <path fill="#979797" d="M1535.5 105.5h56v453h-56z"/>
      <path fill="#242424" d="M1595.5 105.5h56v453h-56z"/>
      <path fill="#979797" d="M1655.5 105.5h56v453h-56z"/>
      <path fill="#242424" d="M1715.5 105.5h56v453h-56z"/>
      <path fill="#979797" d="M1775.5 105.5h56v453h-56zM1835.5 105.5h56v453h-56z"/>
      <path fill="#242424" d="M1895.5 105.5h56v453h-56z"/>
      <path fill="#979797" d="M1955.5 105.5h56v453h-56z"/>
      <path fill="#242424" d="M2015.5 105.5h56v453h-56z"/>
      <path fill="#979797" d="M2075.5 105.5h56v453h-56z"/>
      <path fill="#242424" d="M2135.5 105.5h56v453h-56z"/>
      <path fill="#979797" d="M2195.5 105.5h56v453h-56z"/>
    </g>
  </g>
</svg>
