<svg width="717" height="454" fill="none" xmlns="http://www.w3.org/2000/svg">
  <mask id="a" fill="#fff">
    <path fill-rule="evenodd" clip-rule="evenodd" d="M57 0H0v454h97V278H57V0z"/>
  </mask>
  <path fill-rule="evenodd" clip-rule="evenodd" d="M57 0H0v454h97V278H57V0z" fill="#fff"/>
  <path d="M0 0v-1h-1v1h1zm57 0h1v-1h-1v1zM0 454h-1v1h1v-1zm97 0v1h1v-1h-1zm0-176h1v-1h-1v1zm-40 0h-1v1h1v-1zM0 1h57v-2H0v2zm1 277V0h-2v278h2zm0 176V278h-2v176h2zm56-1H0v2h57v-2zm40 0H57v2h40v-2zm-1-175v176h2V278h-2zm-39 1h40v-2H57v2zM56 0v278h2V0h-2z" fill="#979797" mask="url(#a)"/>
  <mask id="b" fill="#fff">
    <path fill-rule="evenodd" clip-rule="evenodd" d="M177 0h-57v278h-20v176h97V278h-20V0z"/>
  </mask>
  <path fill-rule="evenodd" clip-rule="evenodd" d="M177 0h-57v278h-20v176h97V278h-20V0z" fill="#fff"/>
  <path d="M120 0v-1h-1v1h1zm57 0h1v-1h-1v1zm-57 278v1h1v-1h-1zm-20 0v-1h-1v1h1zm0 176h-1v1h1v-1zm97 0v1h1v-1h-1zm0-176h1v-1h-1v1zm-20 0h-1v1h1v-1zM120 1h57v-2h-57v2zm1 277V0h-2v278h2zm-21 1h20v-2h-20v2zm1 175V278h-2v176h2zm19-1h-20v2h20v-2zm57 0h-57v2h57v-2zm20 0h-20v2h20v-2zm-1-175v176h2V278h-2zm-19 1h20v-2h-20v2zM176 0v278h2V0h-2z" fill="#979797" mask="url(#b)"/>
  <mask id="c" fill="#fff">
    <path fill-rule="evenodd" clip-rule="evenodd" d="M297 0h-57v278h-40v176h97V0z"/>
  </mask>
  <path fill-rule="evenodd" clip-rule="evenodd" d="M297 0h-57v278h-40v176h97V0z" fill="#fff"/>
  <path d="M240 0v-1h-1v1h1zm57 0h1v-1h-1v1zm-57 278v1h1v-1h-1zm-40 0v-1h-1v1h1zm0 176h-1v1h1v-1zm97 0v1h1v-1h-1zM240 1h57v-2h-57v2zm1 277V0h-2v278h2zm-41 1h40v-2h-40v2zm1 175V278h-2v176h2zm39-1h-40v2h40v-2zm57 0h-57v2h57v-2zm-1-175v176h2V278h-2zm0-278v278h2V0h-2z" fill="#979797" mask="url(#c)"/>
  <path fill="#242424" stroke="#979797" d="M60.5.5h56v274h-56zM180.5.5h56v274h-56z"/>
  <mask id="d" fill="#fff">
    <path fill-rule="evenodd" clip-rule="evenodd" d="M357 0h-57v454h102V278h-45V0z"/>
  </mask>
  <path fill-rule="evenodd" clip-rule="evenodd" d="M357 0h-57v454h102V278h-45V0z" fill="#fff"/>
  <path d="M300 0v-1h-1v1h1zm57 0h1v-1h-1v1zm-57 454h-1v1h1v-1zm102 0v1h1v-1h-1zm0-176h1v-1h-1v1zm-45 0h-1v1h1v-1zM300 1h57v-2h-57v2zm1 277V0h-2v278h2zm0 176V278h-2v176h2zm56-1h-57v2h57v-2zm45 0h-45v2h45v-2zm-1-175v176h2V278h-2zm-44 1h45v-2h-45v2zM356 0v278h2V0h-2z" fill="#979797" mask="url(#d)"/>
  <mask id="e" fill="#fff">
    <path fill-rule="evenodd" clip-rule="evenodd" d="M477 0h-57v278h-15v176h102V278h-30V0z"/>
  </mask>
  <path fill-rule="evenodd" clip-rule="evenodd" d="M477 0h-57v278h-15v176h102V278h-30V0z" fill="#fff"/>
  <path d="M420 0v-1h-1v1h1zm57 0h1v-1h-1v1zm-57 278v1h1v-1h-1zm-15 0v-1h-1v1h1zm0 176h-1v1h1v-1zm102 0v1h1v-1h-1zm0-176h1v-1h-1v1zm-30 0h-1v1h1v-1zM420 1h57v-2h-57v2zm1 277V0h-2v278h2zm-16 1h15v-2h-15v2zm1 175V278h-2v176h2zm14-1h-15v2h15v-2zm57 0h-57v2h57v-2zm30 0h-30v2h30v-2zm-1-175v176h2V278h-2zm-29 1h30v-2h-30v2zM476 0v278h2V0h-2z" fill="#979797" mask="url(#e)"/>
  <mask id="f" fill="#fff">
    <path fill-rule="evenodd" clip-rule="evenodd" d="M597 0h-57v278h-30v176h102V278h-15V0z"/>
  </mask>
  <path fill-rule="evenodd" clip-rule="evenodd" d="M597 0h-57v278h-30v176h102V278h-15V0z" fill="#fff"/>
  <path d="M540 0v-1h-1v1h1zm57 0h1v-1h-1v1zm-57 278v1h1v-1h-1zm-30 0v-1h-1v1h1zm0 176h-1v1h1v-1zm102 0v1h1v-1h-1zm0-176h1v-1h-1v1zm-15 0h-1v1h1v-1zM540 1h57v-2h-57v2zm1 277V0h-2v278h2zm-31 1h30v-2h-30v2zm1 175V278h-2v176h2zm29-1h-30v2h30v-2zm57 0h-57v2h57v-2zm15 0h-15v2h15v-2zm-1-175v176h2V278h-2zm-14 1h15v-2h-15v2zM596 0v278h2V0h-2z" fill="#979797" mask="url(#f)"/>
  <mask id="g" fill="#fff">
    <path fill-rule="evenodd" clip-rule="evenodd" d="M717 0h-57v278h-45v176h102V0z"/>
  </mask>
  <path fill-rule="evenodd" clip-rule="evenodd" d="M717 0h-57v278h-45v176h102V0z" fill="#fff"/>
  <path d="M660 0v-1h-1v1h1zm57 0h1v-1h-1v1zm-57 278v1h1v-1h-1zm-45 0v-1h-1v1h1zm0 176h-1v1h1v-1zm102 0v1h1v-1h-1zM660 1h57v-2h-57v2zm1 277V0h-2v278h2zm-46 1h45v-2h-45v2zm1 175V278h-2v176h2zm44-1h-45v2h45v-2zm57 0h-57v2h57v-2zm-1-175v176h2V278h-2zm0-278v278h2V0h-2z" fill="#979797" mask="url(#g)"/>
  <path fill="#242424" stroke="#979797" d="M360.5.5h56v274h-56zM480.5.5h56v274h-56zM600.5.5h56v274h-56z"/>
</svg>
