<?xml version="1.0" encoding="UTF-8"?>
<svg width="2346px" height="559px" viewBox="0 0 2346 559" version="1.1" xmlns="http://www.w3.org/2000/svg" xmlns:xlink="http://www.w3.org/1999/xlink">
    <!-- Generator: Sketch 51.1 (57501) - http://www.bohemiancoding.com/sketch -->
    <title>LIK</title>
    <desc>Created with Sketch.</desc>
    <defs></defs>
    <g id="Page-1" stroke="none" stroke-width="1" fill="none" fill-rule="evenodd">
        <g id="LIK">
            <rect id="Rectangle-4-Copy" stroke="#969696" fill="#343434" fill-rule="nonzero" x="0.5" y="0.5" width="2345" height="546" rx="20"></rect>
            <g id="LIK-Octave-Grey" transform="translate(95.000000, 105.000000)" fill-rule="evenodd" stroke="#979797">
                <rect id="Rectangle" fill="#979797" x="0.5" y="0.5" width="56" height="453"></rect>
                <rect id="Rectangle-Copy" fill="#242424" x="60.5" y="0.5" width="56" height="453"></rect>
                <rect id="Rectangle-Copy-2" fill="#979797" x="120.5" y="0.5" width="56" height="453"></rect>
                <rect id="Rectangle-Copy-3" fill="#242424" x="180.5" y="0.5" width="56" height="453"></rect>
                <rect id="Rectangle-Copy-4" fill="#979797" x="240.5" y="0.5" width="56" height="453"></rect>
                <rect id="Rectangle-Copy-5" fill="#979797" x="300.5" y="0.5" width="56" height="453"></rect>
                <rect id="Rectangle-Copy-6" fill="#242424" x="360.5" y="0.5" width="56" height="453"></rect>
                <rect id="Rectangle-Copy-7" fill="#979797" x="420.5" y="0.5" width="56" height="453"></rect>
                <rect id="Rectangle-Copy-8" fill="#242424" x="480.5" y="0.5" width="56" height="453"></rect>
                <rect id="Rectangle-Copy-9" fill="#979797" x="540.5" y="0.5" width="56" height="453"></rect>
                <rect id="Rectangle-Copy-10" fill="#242424" x="600.5" y="0.5" width="56" height="453"></rect>
                <rect id="Rectangle-Copy-11" fill="#979797" x="660.5" y="0.5" width="56" height="453"></rect>
            </g>
            <g id="LIK-Octave-Grey" transform="translate(815.000000, 105.000000)" fill-rule="evenodd" stroke="#979797">
                <rect id="Rectangle" fill="#979797" x="0.5" y="0.5" width="56" height="453"></rect>
                <rect id="Rectangle-Copy" fill="#242424" x="60.5" y="0.5" width="56" height="453"></rect>
                <rect id="Rectangle-Copy-2" fill="#979797" x="120.5" y="0.5" width="56" height="453"></rect>
                <rect id="Rectangle-Copy-3" fill="#242424" x="180.5" y="0.5" width="56" height="453"></rect>
                <rect id="Rectangle-Copy-4" fill="#979797" x="240.5" y="0.5" width="56" height="453"></rect>
                <rect id="Rectangle-Copy-5" fill="#979797" x="300.5" y="0.5" width="56" height="453"></rect>
                <rect id="Rectangle-Copy-6" fill="#242424" x="360.5" y="0.5" width="56" height="453"></rect>
                <rect id="Rectangle-Copy-7" fill="#979797" x="420.5" y="0.5" width="56" height="453"></rect>
                <rect id="Rectangle-Copy-8" fill="#242424" x="480.5" y="0.5" width="56" height="453"></rect>
                <rect id="Rectangle-Copy-9" fill="#979797" x="540.5" y="0.5" width="56" height="453"></rect>
                <rect id="Rectangle-Copy-10" fill="#242424" x="600.5" y="0.5" width="56" height="453"></rect>
                <rect id="Rectangle-Copy-11" fill="#979797" x="660.5" y="0.5" width="56" height="453"></rect>
            </g>
            <g id="LIK-Octave-Grey" transform="translate(1535.000000, 105.000000)" fill-rule="evenodd" stroke="#979797">
                <rect id="Rectangle" fill="#979797" x="0.5" y="0.5" width="56" height="453"></rect>
                <rect id="Rectangle-Copy" fill="#242424" x="60.5" y="0.5" width="56" height="453"></rect>
                <rect id="Rectangle-Copy-2" fill="#979797" x="120.5" y="0.5" width="56" height="453"></rect>
                <rect id="Rectangle-Copy-3" fill="#242424" x="180.5" y="0.5" width="56" height="453"></rect>
                <rect id="Rectangle-Copy-4" fill="#979797" x="240.5" y="0.5" width="56" height="453"></rect>
                <rect id="Rectangle-Copy-5" fill="#979797" x="300.5" y="0.5" width="56" height="453"></rect>
                <rect id="Rectangle-Copy-6" fill="#242424" x="360.5" y="0.5" width="56" height="453"></rect>
                <rect id="Rectangle-Copy-7" fill="#979797" x="420.5" y="0.5" width="56" height="453"></rect>
                <rect id="Rectangle-Copy-8" fill="#242424" x="480.5" y="0.5" width="56" height="453"></rect>
                <rect id="Rectangle-Copy-9" fill="#979797" x="540.5" y="0.5" width="56" height="453"></rect>
                <rect id="Rectangle-Copy-10" fill="#242424" x="600.5" y="0.5" width="56" height="453"></rect>
                <rect id="Rectangle-Copy-11" fill="#979797" x="660.5" y="0.5" width="56" height="453"></rect>
            </g>
        </g>
    </g>
</svg>