<?xml version="1.0" encoding="UTF-8"?>
<svg width="2346px" height="559px" viewBox="0 0 2346 559" version="1.1" xmlns="http://www.w3.org/2000/svg" xmlns:xlink="http://www.w3.org/1999/xlink">
    <!-- Generator: Sketch 51.1 (57501) - http://www.bohemiancoding.com/sketch -->
    <title>TK</title>
    <desc>Created with Sketch.</desc>
    <defs></defs>
    <g id="Page-1" stroke="none" stroke-width="1" fill="none" fill-rule="evenodd">
        <g id="TK">
            <rect id="Rectangle-4" stroke="#969696" fill="#343434" fill-rule="nonzero" x="0.5" y="0.5" width="2345" height="546" rx="20"></rect>
            <g id="TK-Octave" transform="translate(95.000000, 104.000000)" fill-rule="evenodd" stroke="#979797">
                <g id="TK-Octave-Copy-6">
                    <path d="M56.5,0.5 L0.5,0.5 L0.5,454.5 L96.5,454.5 L96.5,279.112335 L56.5,279.112335 L56.5,0.5 Z" id="Combined-Shape" fill="#FFFFFF"></path>
                    <path d="M100.5,279.112335 L100.5,454.5 L196.5,454.5 L196.5,279.112335 L176.5,279.112335 L176.5,0.5 L120.5,0.5 L120.5,279.112335 L100.5,279.112335 Z" id="Combined-Shape" fill="#FFFFFF"></path>
                    <path d="M200.5,279.112335 L200.5,454.5 L296.5,454.5 L296.5,0.5 L240.5,0.5 L240.5,279.112335 L200.5,279.112335 Z" id="Combined-Shape" fill="#FFFFFF"></path>
                    <rect id="Rectangle-Copy" fill="#242424" x="60.5" y="0.5" width="56" height="274.605727"></rect>
                    <rect id="Rectangle-Copy-3" fill="#242424" x="180.5" y="0.5" width="56" height="274.605727"></rect>
                    <path d="M356.5,0.5 L300.5,0.5 L300.5,454.5 L401.5,454.5 L401.5,279.112335 L356.5,279.112335 L356.5,0.5 Z" id="Combined-Shape" fill="#FFFFFF"></path>
                    <path d="M405.5,279.112335 L405.5,454.5 L506.5,454.5 L506.5,279.112335 L476.5,279.112335 L476.5,0.5 L420.5,0.5 L420.5,279.112335 L405.5,279.112335 Z" id="Combined-Shape" fill="#FFFFFF"></path>
                    <path d="M510.5,279.112335 L510.5,454.5 L611.5,454.5 L611.5,279.112335 L596.5,279.112335 L596.5,0.5 L540.5,0.5 L540.5,279.112335 L510.5,279.112335 Z" id="Combined-Shape" fill="#FFFFFF"></path>
                    <path d="M615.5,279.112335 L615.5,454.5 L716.5,454.5 L716.5,0.5 L660.5,0.5 L660.5,279.112335 L615.5,279.112335 Z" id="Combined-Shape" fill="#FFFFFF"></path>
                    <rect id="Rectangle-Copy-6" fill="#242424" x="360.5" y="0.5" width="56" height="274.605727"></rect>
                    <rect id="Rectangle-Copy-8" fill="#242424" x="480.5" y="0.5" width="56" height="274.605727"></rect>
                    <rect id="Rectangle-Copy-10" fill="#242424" x="600.5" y="0.5" width="56" height="274.605727"></rect>
                </g>
            </g>
            <g id="TK-Octave" transform="translate(815.000000, 104.000000)" fill-rule="evenodd" stroke="#979797">
                <g id="TK-Octave-Copy-6">
                    <path d="M56.5,0.5 L0.5,0.5 L0.5,454.5 L96.5,454.5 L96.5,279.112335 L56.5,279.112335 L56.5,0.5 Z" id="Combined-Shape" fill="#FFFFFF"></path>
                    <path d="M100.5,279.112335 L100.5,454.5 L196.5,454.5 L196.5,279.112335 L176.5,279.112335 L176.5,0.5 L120.5,0.5 L120.5,279.112335 L100.5,279.112335 Z" id="Combined-Shape" fill="#FFFFFF"></path>
                    <path d="M200.5,279.112335 L200.5,454.5 L296.5,454.5 L296.5,0.5 L240.5,0.5 L240.5,279.112335 L200.5,279.112335 Z" id="Combined-Shape" fill="#FFFFFF"></path>
                    <rect id="Rectangle-Copy" fill="#242424" x="60.5" y="0.5" width="56" height="274.605727"></rect>
                    <rect id="Rectangle-Copy-3" fill="#242424" x="180.5" y="0.5" width="56" height="274.605727"></rect>
                    <path d="M356.5,0.5 L300.5,0.5 L300.5,454.5 L401.5,454.5 L401.5,279.112335 L356.5,279.112335 L356.5,0.5 Z" id="Combined-Shape" fill="#FFFFFF"></path>
                    <path d="M405.5,279.112335 L405.5,454.5 L506.5,454.5 L506.5,279.112335 L476.5,279.112335 L476.5,0.5 L420.5,0.5 L420.5,279.112335 L405.5,279.112335 Z" id="Combined-Shape" fill="#FFFFFF"></path>
                    <path d="M510.5,279.112335 L510.5,454.5 L611.5,454.5 L611.5,279.112335 L596.5,279.112335 L596.5,0.5 L540.5,0.5 L540.5,279.112335 L510.5,279.112335 Z" id="Combined-Shape" fill="#FFFFFF"></path>
                    <path d="M615.5,279.112335 L615.5,454.5 L716.5,454.5 L716.5,0.5 L660.5,0.5 L660.5,279.112335 L615.5,279.112335 Z" id="Combined-Shape" fill="#FFFFFF"></path>
                    <rect id="Rectangle-Copy-6" fill="#242424" x="360.5" y="0.5" width="56" height="274.605727"></rect>
                    <rect id="Rectangle-Copy-8" fill="#242424" x="480.5" y="0.5" width="56" height="274.605727"></rect>
                    <rect id="Rectangle-Copy-10" fill="#242424" x="600.5" y="0.5" width="56" height="274.605727"></rect>
                </g>
            </g>
            <g id="TK-Octave" transform="translate(1535.000000, 104.000000)" fill-rule="evenodd" stroke="#979797">
                <g id="TK-Octave-Copy-6">
                    <path d="M56.5,0.5 L0.5,0.5 L0.5,454.5 L96.5,454.5 L96.5,279.112335 L56.5,279.112335 L56.5,0.5 Z" id="Combined-Shape" fill="#FFFFFF"></path>
                    <path d="M100.5,279.112335 L100.5,454.5 L196.5,454.5 L196.5,279.112335 L176.5,279.112335 L176.5,0.5 L120.5,0.5 L120.5,279.112335 L100.5,279.112335 Z" id="Combined-Shape" fill="#FFFFFF"></path>
                    <path d="M200.5,279.112335 L200.5,454.5 L296.5,454.5 L296.5,0.5 L240.5,0.5 L240.5,279.112335 L200.5,279.112335 Z" id="Combined-Shape" fill="#FFFFFF"></path>
                    <rect id="Rectangle-Copy" fill="#242424" x="60.5" y="0.5" width="56" height="274.605727"></rect>
                    <rect id="Rectangle-Copy-3" fill="#242424" x="180.5" y="0.5" width="56" height="274.605727"></rect>
                    <path d="M356.5,0.5 L300.5,0.5 L300.5,454.5 L401.5,454.5 L401.5,279.112335 L356.5,279.112335 L356.5,0.5 Z" id="Combined-Shape" fill="#FFFFFF"></path>
                    <path d="M405.5,279.112335 L405.5,454.5 L506.5,454.5 L506.5,279.112335 L476.5,279.112335 L476.5,0.5 L420.5,0.5 L420.5,279.112335 L405.5,279.112335 Z" id="Combined-Shape" fill="#FFFFFF"></path>
                    <path d="M510.5,279.112335 L510.5,454.5 L611.5,454.5 L611.5,279.112335 L596.5,279.112335 L596.5,0.5 L540.5,0.5 L540.5,279.112335 L510.5,279.112335 Z" id="Combined-Shape" fill="#FFFFFF"></path>
                    <path d="M615.5,279.112335 L615.5,454.5 L716.5,454.5 L716.5,0.5 L660.5,0.5 L660.5,279.112335 L615.5,279.112335 Z" id="Combined-Shape" fill="#FFFFFF"></path>
                    <rect id="Rectangle-Copy-6" fill="#242424" x="360.5" y="0.5" width="56" height="274.605727"></rect>
                    <rect id="Rectangle-Copy-8" fill="#242424" x="480.5" y="0.5" width="56" height="274.605727"></rect>
                    <rect id="Rectangle-Copy-10" fill="#242424" x="600.5" y="0.5" width="56" height="274.605727"></rect>
                </g>
            </g>
        </g>
    </g>
</svg>