<svg height="511pt" viewBox="-45 0 511 511.9999" width="511pt" xmlns="http://www.w3.org/2000/svg"><path d="m373.871094 169.175781c-35.941406-44.1875-86.253906-69.953125-138.8125-76.058593v-26.441407h15.910156c18.386719 0 33.335938-14.960937 33.335938-33.335937 0-18.390625-14.949219-33.339844-33.335938-33.339844h-80.351562c-18.390626 0-33.339844 14.949219-33.339844 33.339844 0 18.375 14.949218 33.335937 33.339844 33.335937h15.910156v26.398438c-163.710938 18.765625-243.601563 212.652343-138.816406 341.453125 73.171874 89.949218 205.847656 103.550781 295.761718 30.410156 89.917969-73.164062 103.5625-205.84375 30.398438-295.761719zm-203.253906-117.539062c-10.097657 0-18.296876-8.210938-18.296876-18.296875 0-10.089844 8.199219-18.300782 18.296876-18.300782h80.351562c10.097656 0 18.296875 8.210938 18.296875 18.300782 0 10.085937-8.199219 18.296875-18.296875 18.296875-28.285156 0-51.726562 0-80.351562 0zm49.398437 15.039062v25.238281c-6.144531-.273437-12.300781-.28125-18.445313-.023437v-25.214844zm113.960937 386.589844c-83.488281 67.929687-206.675781 55.253906-274.59375-28.226563-97.023437-119.246093-23.554687-298.191406 127.144532-316.8125 64.765625-8.050781 131.871094 16.601563 175.675781 70.445313 68.082031 83.6875 55.078125 206.828125-28.226563 274.59375zm0 0"/><path d="m239.71875 455.589844c-41.925781 7.875-85.960938-1.285156-122.082031-28.0625-67.257813-49.855469-63.183594-125.917969-63.285157-126.332032.007813-4.152343-3.351562-7.519531-7.5-7.542968-4.207031 0-7.53125 3.386718-7.539062 7.5.21875 1.910156-1.769531 37.078125 17.65625 76.5625 11.949219 24.273437 29.828125 45.671875 51.714844 61.894531 40.191406 29.796875 88.75 39.253906 133.8125 30.761719 4.082031-.761719 6.769531-4.691406 5.996094-8.773438-.761719-4.082031-4.691407-6.777344-8.773438-6.007812zm0 0"/><path d="m49.679688 278.796875c3.546874 0 6.695312-2.507813 7.386718-6.117187 21.261719-112.71875 154.109375-165.28125 246.882813-96.503907 7.992187 5.925781 15.417969 12.601563 22.097656 19.851563 2.808594 3.058594 7.570313 3.25 10.617187.441406 3.058594-2.816406 3.257813-7.570312.441407-10.628906-7.308594-7.941406-15.449219-15.261719-24.203125-21.746094-102.464844-75.953125-247.410156-17.027344-270.613282 105.789062-.871093 4.605469 2.644532 8.914063 7.390626 8.914063zm0 0"/><path d="m356.167969 210.824219c-2.207031-3.519531-6.839844-4.589844-10.371094-2.382813-3.515625 2.203125-4.582031 6.847656-2.382813 10.367188 15.589844 24.902344 23.820313 53.660156 23.820313 83.167968 0 66.144532-41.34375 123.15625-99.941406 145.773438-9.113281 3.507812-4.078125 17.664062 5.414062 14.039062 64.25-24.808593 109.566407-87.292968 109.566407-159.8125 0-32.335937-9.023438-63.847656-26.105469-91.152343zm0 0"/><path d="m235.78125 320.375c15.15625-20.445312.566406-49.640625-24.859375-49.640625-4.746094 0-16.695313 1.226563-25.121094 12.59375-6.007812 8.109375-7.5 17.785156-4.945312 27.003906l-43.101563 27.613281c-6.304687 4.042969-3.429687 13.851563 4.066406 13.851563 3.949219 0 2.078126-.433594 46.515626-28.398437 13.71875 14.105468 36.160156 12.203124 47.445312-3.023438zm-12.082031-8.953125c-5.171875 6.980469-15.179688 8.742187-22.476563 3.339844-12.492187-9.265625-5.84375-28.984375 9.699219-28.984375 12.859375-.003906 20.710937 14.941406 12.777344 25.644531zm0 0"/><path d="m218.3125 191.875v-27.984375c0-4.152344-3.367188-7.519531-7.519531-7.519531-4.152344 0-7.519531 3.367187-7.519531 7.519531v27.984375c0 4.152344 3.367187 7.519531 7.519531 7.519531 4.152343 0 7.519531-3.367187 7.519531-7.519531zm0 0"/><path d="m155.8125 214.132812c1.273438 0 2.566406-.324218 3.75-1.011718 3.597656-2.074219 4.828125-6.671875 2.753906-10.269532l-13.992187-24.234374c-2.078125-3.597657-6.675781-4.828126-10.273438-2.753907-3.59375 2.078125-4.828125 6.675781-2.75 10.273438l13.992188 24.234375c1.390625 2.410156 3.917969 3.761718 6.519531 3.761718zm0 0"/><path d="m119.3125 240.351562-24.234375-13.992187c-3.597656-2.078125-8.195313-.84375-10.273437 2.753906-2.078126 3.59375-.84375 8.195313 2.753906 10.269531l24.230468 13.992188c1.1875.683594 2.480469 1.007812 3.753907 1.007812 2.597656 0 5.128906-1.347656 6.519531-3.757812 2.078125-3.597656.84375-8.195312-2.75-10.273438zm0 0"/><path d="m108.335938 301.851562c0-4.152343-3.367188-7.519531-7.519532-7.519531h-27.984375c-4.152343 0-7.519531 3.367188-7.519531 7.519531 0 4.152344 3.367188 7.519532 7.519531 7.519532h27.984375c4.152344 0 7.519532-3.367188 7.519532-7.519532zm0 0"/><path d="m91.324219 378.351562c3.53125 0 3.25-1.109374 27.988281-15 3.59375-2.074218 4.828125-6.675781 2.75-10.273437-2.078125-3.59375-6.675781-4.828125-10.273438-2.75l-24.230468 13.992187c-6.648438 3.835938-3.90625 14.03125 3.765625 14.03125zm0 0"/><path d="m149.292969 393.335938-13.992188 24.230468c-2.910156 5.039063.777344 11.28125 6.503907 11.28125 2.597656 0 5.125-1.347656 6.519531-3.761718l13.992187-24.230469c2.074219-3.597657.84375-8.195313-2.753906-10.273438-3.59375-2.078125-8.195312-.84375-10.269531 2.753907zm0 0"/><path d="m203.273438 411.828125v27.984375c0 4.152344 3.367187 7.519531 7.519531 7.519531 4.152343 0 7.519531-3.367187 7.519531-7.519531v-27.984375c0-4.152344-3.367188-7.519531-7.519531-7.519531-4.152344 0-7.519531 3.367187-7.519531 7.519531zm0 0"/><path d="m283.53125 427.839844c3.597656-2.074219 4.828125-6.675782 2.753906-10.269532l-13.992187-24.234374c-2.078125-3.597657-6.675781-4.828126-10.273438-2.753907-3.597656 2.078125-4.828125 6.675781-2.75 10.273438l13.988281 24.234375c2.085938 3.605468 6.6875 4.820312 10.273438 2.75zm0 0"/><path d="m302.273438 363.351562c24.714843 13.882813 24.460937 15.003907 27.988281 15.003907 2.597656 0 5.125-1.351563 6.519531-3.761719 2.078125-3.597656.84375-8.195312-2.753906-10.273438l-24.234375-13.992187c-3.59375-2.078125-8.195313-.84375-10.269531 2.753906-2.078126 3.59375-.847657 8.195313 2.75 10.269531zm0 0"/><path d="m356.269531 301.851562c0-4.152343-3.363281-7.519531-7.519531-7.519531h-27.980469c-4.15625 0-7.523437 3.367188-7.523437 7.519531 0 4.152344 3.367187 7.519532 7.523437 7.519532h27.980469c4.15625 0 7.519531-3.367188 7.519531-7.519532zm0 0"/><path d="m306.039062 254.386719c1.277344 0 2.570313-.324219 3.753907-1.007813l24.234375-13.992187c3.597656-2.078125 4.828125-6.675781 2.753906-10.273438-2.078125-3.597656-6.675781-4.828125-10.273438-2.753906l-24.234374 13.992187c-3.597657 2.078126-4.828126 6.675782-2.75 10.273438 1.390624 2.414062 3.917968 3.761719 6.515624 3.761719zm0 0"/><path d="m273.257812 178.617188-13.988281 24.234374c-2.078125 3.59375-.847656 8.195313 2.75 10.269532 1.183594.683594 2.476563 1.007812 3.753907 1.007812 2.597656 0 5.125-1.347656 6.519531-3.757812l13.992187-24.234375c2.074219-3.597657.84375-8.195313-2.753906-10.273438s-8.195312-.84375-10.273438 2.753907zm0 0"/></svg>